<!DOCTYPE svg PUBLIC "-//W3C//DTD SVG 1.1//EN" "http://www.w3.org/Graphics/SVG/1.1/DTD/svg11.dtd">
<!-- Uploaded to: SVG Repo, www.svgrepo.com, Transformed by: SVG Repo Mixer Tools -->
<svg width="800px" height="800px" viewBox="0 0 400 400" fill="none" xmlns="http://www.w3.org/2000/svg">
<g id="SVGRepo_bgCarrier" stroke-width="0"/>
<g id="SVGRepo_tracerCarrier" stroke-linecap="round" stroke-linejoin="round"/>
<g id="SVGRepo_iconCarrier"> <path opacity="0.501442" d="M179.705 101.257C180.395 105.334 181.126 109.416 181.861 113.474" stroke="#742876" stroke-opacity="0.9" stroke-width="16" stroke-linecap="round" stroke-linejoin="round"/> <path d="M182.58 144.026C182.915 147.742 183.123 151.45 183.3 155.166" stroke="#742876" stroke-opacity="0.9" stroke-width="16" stroke-linecap="round" stroke-linejoin="round"/> <path opacity="0.503384" d="M186.893 183.199C186.893 188.023 186.893 185.562 186.893 190.386" stroke="#742876" stroke-opacity="0.9" stroke-width="16" stroke-linecap="round" stroke-linejoin="round"/> <path opacity="0.503384" d="M188.332 243.933C188.814 246.236 188.09 248.519 187.974 250.762" stroke="#742876" stroke-opacity="0.9" stroke-width="16" stroke-linecap="round" stroke-linejoin="round"/> <path d="M189.771 277.718C189.119 280.71 188.573 283.703 187.974 286.702" stroke="#742876" stroke-opacity="0.9" stroke-width="16" stroke-linecap="round" stroke-linejoin="round"/> <path opacity="0.501442" d="M185.818 313.296C184.62 316.921 185.094 320.742 184.736 324.439" stroke="#742876" stroke-opacity="0.9" stroke-width="16" stroke-linecap="round" stroke-linejoin="round"/> <path opacity="0.502023" d="M247.057 126.514C242.678 131.926 239.151 137.857 235.556 143.766" stroke="#742876" stroke-opacity="0.9" stroke-width="16" stroke-linecap="round" stroke-linejoin="round"/> <path d="M223.034 165.818C220.551 167.502 220.357 170.716 219.019 173.16" stroke="#742876" stroke-opacity="0.9" stroke-width="16" stroke-linecap="round" stroke-linejoin="round"/> <path opacity="0.503384" d="M207.786 187.853C207.259 189.575 205.608 190.513 204.553 191.806" stroke="#742876" stroke-opacity="0.9" stroke-width="16" stroke-linecap="round" stroke-linejoin="round"/> <path opacity="0.503384" d="M169.287 237.824C167.425 239.283 166.389 241.446 164.972 243.217" stroke="#742876" stroke-opacity="0.9" stroke-width="16" stroke-linecap="round" stroke-linejoin="round"/> <path d="M150.62 266.029C148.871 269.119 146.294 271.558 144.149 274.294" stroke="#742876" stroke-opacity="0.9" stroke-width="16" stroke-linecap="round" stroke-linejoin="round"/> <path opacity="0.501442" d="M125.796 293.888C123.749 297.902 119.924 300.28 116.812 303.234" stroke="#742876" stroke-opacity="0.9" stroke-width="16" stroke-linecap="round" stroke-linejoin="round"/> <path opacity="0.501442" d="M132.986 126.054C135.251 129.046 136.57 132.509 138.375 135.758" stroke="#742876" stroke-opacity="0.9" stroke-width="16" stroke-linecap="round" stroke-linejoin="round"/> <path d="M151.676 156.964C154.046 161.045 156.545 165.206 158.862 169.181" stroke="#742876" stroke-opacity="0.9" stroke-width="16" stroke-linecap="round" stroke-linejoin="round"/> <path opacity="0.503384" d="M169.642 190.386C170.915 191.916 171.552 193.725 172.517 195.417" stroke="#742876" stroke-opacity="0.9" stroke-width="16" stroke-linecap="round" stroke-linejoin="round"/> <path opacity="0.503384" d="M205.942 237.466C205.527 239.245 207.404 239.659 208.098 240.699" stroke="#742876" stroke-opacity="0.9" stroke-width="16" stroke-linecap="round" stroke-linejoin="round"/> <path d="M226.428 265.496C227.034 267.245 228.376 268.665 229.303 270.169" stroke="#742876" stroke-opacity="0.9" stroke-width="16" stroke-linecap="round" stroke-linejoin="round"/> <path opacity="0.501442" d="M244.394 291.375C247.016 294.061 247.276 297.86 248.709 301.078" stroke="#742876" stroke-opacity="0.9" stroke-width="16" stroke-linecap="round" stroke-linejoin="round"/> <path opacity="0.503384" d="M157.708 222.517C155.447 224.013 152.586 223.734 150.163 224.31" stroke="#742876" stroke-opacity="0.9" stroke-width="16" stroke-linecap="round" stroke-linejoin="round"/> <path d="M129.75 231.357C127.7 233.396 124.312 232.394 122.205 232.793" stroke="#742876" stroke-opacity="0.9" stroke-width="16" stroke-linecap="round" stroke-linejoin="round"/> <path opacity="0.501442" d="M100.641 238.544C96.6579 239.863 92.5088 240.38 88.4199 241.062" stroke="#742876" stroke-opacity="0.9" stroke-width="16" stroke-linecap="round" stroke-linejoin="round"/> <path opacity="0.503384" d="M216.312 205.036C218.619 203.488 220.628 202.447 222.77 201.083" stroke="#742876" stroke-opacity="0.9" stroke-width="16" stroke-linecap="round" stroke-linejoin="round"/> <path d="M249.425 191.822C250.951 191.144 252.541 190.624 254.098 190.024" stroke="#742876" stroke-opacity="0.9" stroke-width="16" stroke-linecap="round" stroke-linejoin="round"/> <path opacity="0.502023" d="M274.94 181.402C279.274 179.232 283.559 177.008 287.882 174.932" stroke="#742876" stroke-opacity="0.9" stroke-width="16" stroke-linecap="round" stroke-linejoin="round"/> <path opacity="0.501442" d="M78 177.449C86.8183 178.576 95.0337 181.798 103.517 183.916" stroke="#742876" stroke-opacity="0.9" stroke-width="16" stroke-linecap="round" stroke-linejoin="round"/> <path d="M127.95 190.745C131.485 191.928 134.937 193.322 138.374 194.698" stroke="#742876" stroke-opacity="0.9" stroke-width="16" stroke-linecap="round" stroke-linejoin="round"/> <path opacity="0.503384" d="M154.974 203.756C157.137 204.159 158.81 205.911 160.724 206.989" stroke="#742876" stroke-opacity="0.9" stroke-width="16" stroke-linecap="round" stroke-linejoin="round"/> <path opacity="0.503384" d="M215.109 220.611C217.998 221.001 220.732 221.838 223.528 222.447" stroke="#742876" stroke-opacity="0.9" stroke-width="16" stroke-linecap="round" stroke-linejoin="round"/> <path d="M251.586 229.561C253.53 229.685 255.185 230.759 256.975 231.358" stroke="#742876" stroke-opacity="0.9" stroke-width="16" stroke-linecap="round" stroke-linejoin="round"/> <path opacity="0.501442" d="M282.852 238.186C289.529 240.048 296.558 243.375 302.617 245.731" stroke="#742876" stroke-opacity="0.9" stroke-width="16" stroke-linecap="round" stroke-linejoin="round"/> <path opacity="0.503384" d="M286.759 103.242C286.559 113.77 286.959 124.286 287.118 134.783" stroke="#742876" stroke-opacity="0.9" stroke-width="16" stroke-linecap="round" stroke-linejoin="round"/> <path opacity="0.503384" d="M303.341 104.674C293.43 113.818 283.175 122.181 272.338 130.123" stroke="#742876" stroke-opacity="0.9" stroke-width="16" stroke-linecap="round" stroke-linejoin="round"/> <path opacity="0.503384" d="M271.257 107.541C279.841 115.652 288.618 123.334 298.291 130.122" stroke="#742876" stroke-opacity="0.9" stroke-width="16" stroke-linecap="round" stroke-linejoin="round"/> <path d="M317.341 93.8868C319.752 93.4658 321.597 89.9591 322.391 89.23" stroke="#742876" stroke-opacity="0.9" stroke-width="16" stroke-linecap="round" stroke-linejoin="round"/> <path d="M288.564 83.8853C289.097 81.2581 289.286 78.6159 289.646 76" stroke="#742876" stroke-opacity="0.9" stroke-width="16" stroke-linecap="round" stroke-linejoin="round"/> <path d="M257.56 97.8631C255.072 95.5103 252.487 93.2439 249.988 91.0527" stroke="#742876" stroke-opacity="0.9" stroke-width="16" stroke-linecap="round" stroke-linejoin="round"/> <path d="M256.837 140.875C255.525 143.487 251.719 143.987 250.351 144.818" stroke="#742876" stroke-opacity="0.9" stroke-width="16" stroke-linecap="round" stroke-linejoin="round"/> <path d="M285.316 159.157C285.573 161.126 285.078 162.983 284.957 164.892" stroke="#742876" stroke-opacity="0.9" stroke-width="16" stroke-linecap="round" stroke-linejoin="round"/> <path d="M314.155 144.461C316.862 146.546 319.759 148.487 322.574 150.475" stroke="#742876" stroke-opacity="0.9" stroke-width="16" stroke-linecap="round" stroke-linejoin="round"/> </g>
</svg>