<!DOCTYPE svg PUBLIC "-//W3C//DTD SVG 1.1//EN" "http://www.w3.org/Graphics/SVG/1.1/DTD/svg11.dtd">
<!-- Uploaded to: SVG Repo, www.svgrepo.com, Transformed by: SVG Repo Mixer Tools -->
<svg width="800px" height="800px" viewBox="0 0 400 400" fill="none" xmlns="http://www.w3.org/2000/svg">
<g id="SVGRepo_bgCarrier" stroke-width="0"/>
<g id="SVGRepo_tracerCarrier" stroke-linecap="round" stroke-linejoin="round"/>
<g id="SVGRepo_iconCarrier"> <path d="M90.2302 126.423C109.865 62.869 186.717 112.695 151.402 163.519C128.646 196.275 81.5831 175.351 86.2848 138.138" stroke="#8941aa" stroke-opacity="0.9" stroke-width="16" stroke-linecap="round" stroke-linejoin="round"/> <path d="M161.167 182.479C157.24 180.453 152.415 181.994 150.39 185.921C148.364 189.848 149.905 194.673 153.832 196.698L161.167 182.479ZM200.499 213L197.898 220.565L197.9 220.566L200.499 213ZM240.159 224.826C244.482 223.909 247.242 219.662 246.325 215.34C245.408 211.018 241.161 208.257 236.839 209.174L240.159 224.826ZM242.539 196.23C246.206 198.693 251.177 197.717 253.64 194.049C256.104 190.382 255.128 185.411 251.46 182.948L242.539 196.23ZM207.184 189.589L204.133 196.984C204.515 197.142 204.909 197.269 205.311 197.366L207.184 189.589ZM163.971 161.296C161.373 157.722 156.37 156.931 152.796 159.528C149.222 162.126 148.43 167.129 151.028 170.703L163.971 161.296ZM153.832 196.698C161.339 200.571 167.413 204.673 174.429 208.992C181.306 213.225 188.707 217.405 197.898 220.565L203.1 205.434C195.556 202.841 189.323 199.372 182.816 195.367C176.449 191.447 169.39 186.721 161.167 182.479L153.832 196.698ZM197.9 220.566C203.952 222.645 221.269 228.833 240.159 224.826L236.839 209.174C222.73 212.167 209.263 207.552 203.099 205.434L197.9 220.566ZM251.46 182.948C247.649 180.388 243.265 180.323 240.314 180.498C237.236 180.68 233.592 181.321 230.46 181.803C223.712 182.841 216.601 183.628 209.057 181.811L205.311 197.366C216.083 199.961 225.835 198.703 232.894 197.616C236.666 197.036 239.161 196.594 241.258 196.47C243.481 196.339 243.306 196.745 242.539 196.23L251.46 182.948ZM210.235 182.193C207.667 181.134 203.549 179.663 199.119 178.047C194.562 176.384 189.4 174.472 184.352 172.409C179.276 170.335 174.491 168.179 170.653 166.056C166.517 163.769 164.543 162.084 163.971 161.296L151.028 170.703C153.833 174.562 158.575 177.661 162.91 180.058C167.541 182.619 172.981 185.047 178.299 187.22C183.645 189.405 189.046 191.404 193.636 193.078C198.354 194.799 201.969 196.091 204.133 196.984L210.235 182.193Z" fill="#8941aa" fill-opacity="0.9"/> <path d="M132.43 90.4636C152.774 50.9286 148.385 84.0334 150.775 105.072" stroke="#8941aa" stroke-opacity="0.9" stroke-width="16" stroke-linecap="round" stroke-linejoin="round"/> <path d="M85.2792 167.541C68.0589 202.289 53.0762 195.444 89.0386 196.902C106.744 197.621 141.753 191.424 156 189.5" stroke="#8941aa" stroke-opacity="0.9" stroke-width="16" stroke-linecap="round" stroke-linejoin="round"/> <path d="M247.391 189.589C276.133 205.374 292.632 235.652 308.54 263.081" stroke="#8941aa" stroke-opacity="0.9" stroke-width="16" stroke-linecap="round" stroke-linejoin="round"/> <path d="M240.053 216.536C263.664 208.164 294.943 205.213 313.432 187.139" stroke="#8941aa" stroke-opacity="0.9" stroke-width="16" stroke-linecap="round" stroke-linejoin="round"/> <path opacity="0.503384" d="M175.147 121.047C202.414 103.344 248.677 109.545 276.547 121.015C314.267 136.534 338.365 168.773 331.975 212.464C305.44 394.003 36.4338 333.881 79.6362 221.297" stroke="#8941aa" stroke-opacity="0.9" stroke-width="14" stroke-linecap="round" stroke-linejoin="round"/> <path opacity="0.503384" d="M191.361 166.884C245.357 144.21 287.738 218.397 232.544 247.919C217.885 255.759 200.843 257.899 184.628 253.426C171.279 249.741 142.829 232.092 154.925 215.269" stroke="#8941aa" stroke-opacity="0.9" stroke-width="14" stroke-linecap="round" stroke-linejoin="round"/> </g>
</svg>